<svg xmlns="http://www.w3.org/2000/svg" xmlns:xlink="http://www.w3.org/1999/xlink" width="500" zoomAndPan="magnify" viewBox="0 0 375 374.999991" height="500" preserveAspectRatio="xMidYMid meet" version="1.0"><defs><g/><clipPath id="acafce57d5"><rect x="0" width="266" y="0" height="255"/></clipPath></defs><g transform="matrix(1, 0, 0, 1, 52, 60)"><g clip-path="url(#acafce57d5)"><g fill="#ff0000" fill-opacity="1"><g transform="translate(10.755441, 203.405692)"><g><path d="M 0 0 L 0 -64.734375 L 32.375 -64.734375 L 32.375 0 Z M 32.375 -64.734375 L 32.375 -97.109375 L 194.21875 -97.109375 L 194.21875 -64.734375 Z M 194.21875 -97.109375 L 194.21875 -129.484375 L 226.59375 -129.484375 L 226.59375 -97.109375 Z M 0 -129.484375 L 0 -161.84375 L 194.21875 -161.84375 L 194.21875 -129.484375 Z M 194.21875 0 L 194.21875 -64.734375 L 226.59375 -64.734375 L 226.59375 0 Z M 194.21875 0 "/></g></g></g><g fill="#00ffff" fill-opacity="1"><g transform="translate(1.27194, 203.405692)"><g><path d="M 0 0 L 0 -64.734375 L 32.375 -64.734375 L 32.375 0 Z M 32.375 -64.734375 L 32.375 -97.109375 L 194.21875 -97.109375 L 194.21875 -64.734375 Z M 194.21875 -97.109375 L 194.21875 -129.484375 L 226.59375 -129.484375 L 226.59375 -97.109375 Z M 0 -129.484375 L 0 -161.84375 L 194.21875 -161.84375 L 194.21875 -129.484375 Z M 194.21875 0 L 194.21875 -64.734375 L 226.59375 -64.734375 L 226.59375 0 Z M 194.21875 0 "/></g></g></g><g fill="#0b0b0b" fill-opacity="1"><g transform="translate(6.01369, 203.405692)"><g><path d="M 0 0 L 0 -64.734375 L 32.375 -64.734375 L 32.375 0 Z M 32.375 -64.734375 L 32.375 -97.109375 L 194.21875 -97.109375 L 194.21875 -64.734375 Z M 194.21875 -97.109375 L 194.21875 -129.484375 L 226.59375 -129.484375 L 226.59375 -97.109375 Z M 0 -129.484375 L 0 -161.84375 L 194.21875 -161.84375 L 194.21875 -129.484375 Z M 194.21875 0 L 194.21875 -64.734375 L 226.59375 -64.734375 L 226.59375 0 Z M 194.21875 0 "/></g></g></g></g></g></svg>