<svg xmlns="http://www.w3.org/2000/svg" xmlns:xlink="http://www.w3.org/1999/xlink" width="500" zoomAndPan="magnify" viewBox="0 0 375 374.999991" height="500" preserveAspectRatio="xMidYMid meet" version="1.0"><defs><g/></defs><g fill="#0b0b0b" fill-opacity="1"><g transform="translate(33.411081, 268.337678)"><g><path d="M 0 0 L 0 -10.625 L 5.3125 -10.625 L 5.3125 0 Z M 5.3125 -10.625 L 5.3125 -15.9375 L 31.890625 -15.9375 L 31.890625 -10.625 Z M 31.890625 -15.9375 L 31.890625 -21.25 L 37.203125 -21.25 L 37.203125 -15.9375 Z M 0 -21.25 L 0 -26.5625 L 31.890625 -26.5625 L 31.890625 -21.25 Z M 31.890625 0 L 31.890625 -10.625 L 37.203125 -10.625 L 37.203125 0 Z M 31.890625 0 "/></g></g></g><g fill="#0b0b0b" fill-opacity="1"><g transform="translate(75.915168, 268.337678)"><g><path d="M 5.3125 -15.9375 L 0 -15.9375 L 0 -21.25 L 5.3125 -21.25 Z M 37.203125 -21.25 L 5.3125 -21.25 L 5.3125 -26.5625 L 37.203125 -26.5625 Z M 31.890625 -15.9375 L 31.890625 -10.625 L 5.3125 -10.625 L 5.3125 -15.9375 Z M 5.3125 -10.625 L 5.3125 -5.3125 L 0 -5.3125 L 0 -10.625 Z M 37.203125 -5.3125 L 37.203125 0 L 5.3125 0 L 5.3125 -5.3125 Z M 37.203125 -5.3125 "/></g></g></g><g fill="#0b0b0b" fill-opacity="1"><g transform="translate(118.419254, 268.337678)"><g><path d="M 31.890625 0 L 30.640625 -10.625 L 35.953125 -10.625 L 37.203125 0 Z M 5.3125 -10.625 L 5.3125 -15.9375 L 30.640625 -15.9375 L 30.640625 -10.625 Z M 0 0 L 0 -26.5625 L 5.3125 -26.5625 L 5.3125 0 Z M 30.640625 -15.9375 L 31.890625 -26.5625 L 37.203125 -26.5625 L 35.953125 -15.9375 Z M 30.640625 -15.9375 "/></g></g></g><g fill="#0b0b0b" fill-opacity="1"><g transform="translate(160.923341, 268.337678)"><g><path d="M 5.3125 0 L 5.3125 -5.3125 L 31.890625 -5.3125 L 31.890625 0 Z M 0 -5.3125 L 0 -21.25 L 5.3125 -21.25 L 5.3125 -5.3125 Z M 31.890625 -5.3125 L 31.890625 -21.25 L 37.203125 -21.25 L 37.203125 -5.3125 Z M 5.3125 -21.25 L 5.3125 -26.5625 L 31.890625 -26.5625 L 31.890625 -21.25 Z M 5.3125 -21.25 "/></g></g></g><g fill="#0b0b0b" fill-opacity="1"><g transform="translate(203.427427, 268.337678)"><g><path d="M 5.3125 -26.5625 L 31.890625 -26.5625 L 31.890625 -21.25 L 5.3125 -21.25 Z M 0 -21.25 L 5.3125 -21.25 L 5.3125 0 L 0 0 Z M 31.890625 -21.25 L 37.203125 -21.25 L 37.203125 0 L 31.890625 0 Z M 31.890625 -21.25 "/></g></g></g><g fill="#0b0b0b" fill-opacity="1"><g transform="translate(245.931514, 268.337678)"><g><path d="M 0 -5.3125 L 5.3125 -5.3125 L 5.3125 0 L 0 0 Z M 0 -5.3125 "/></g></g></g><g fill="#0b0b0b" fill-opacity="1"><g transform="translate(256.557535, 268.337678)"><g><path d="M 5.3125 -5.3125 L 0 -5.3125 L 0 -21.25 L 5.3125 -21.25 Z M 31.890625 -21.25 L 5.3125 -21.25 L 5.3125 -26.5625 L 31.890625 -26.5625 Z M 37.203125 -5.3125 L 31.890625 -5.3125 L 31.890625 -10.625 L 37.203125 -10.625 Z M 31.890625 -10.625 L 10.625 -10.625 L 10.625 -15.9375 L 31.890625 -15.9375 Z M 31.890625 0 L 5.3125 0 L 5.3125 -5.3125 L 31.890625 -5.3125 Z M 31.890625 0 "/></g></g></g><g fill="#0b0b0b" fill-opacity="1"><g transform="translate(299.061622, 268.337678)"><g><path d="M 5.3125 -5.3125 L 0 -5.3125 L 0 -21.25 L 5.3125 -21.25 Z M 31.890625 -21.25 L 5.3125 -21.25 L 5.3125 -26.5625 L 31.890625 -26.5625 Z M 37.203125 -5.3125 L 31.890625 -5.3125 L 31.890625 -10.625 L 37.203125 -10.625 Z M 31.890625 -10.625 L 10.625 -10.625 L 10.625 -15.9375 L 31.890625 -15.9375 Z M 31.890625 0 L 5.3125 0 L 5.3125 -5.3125 L 31.890625 -5.3125 Z M 31.890625 0 "/></g></g></g><g fill="#ff0000" fill-opacity="1"><g transform="translate(91.976535, 217.290259)"><g><path d="M 0 0 L 0 -49.578125 L 24.78125 -49.578125 L 24.78125 0 Z M 24.78125 -49.578125 L 24.78125 -74.359375 L 148.734375 -74.359375 L 148.734375 -49.578125 Z M 148.734375 -74.359375 L 148.734375 -99.15625 L 173.515625 -99.15625 L 173.515625 -74.359375 Z M 0 -99.15625 L 0 -123.9375 L 148.734375 -123.9375 L 148.734375 -99.15625 Z M 148.734375 0 L 148.734375 -49.578125 L 173.515625 -49.578125 L 173.515625 0 Z M 148.734375 0 "/></g></g></g><g fill="#00ffff" fill-opacity="1"><g transform="translate(84.714512, 217.290259)"><g><path d="M 0 0 L 0 -49.578125 L 24.78125 -49.578125 L 24.78125 0 Z M 24.78125 -49.578125 L 24.78125 -74.359375 L 148.734375 -74.359375 L 148.734375 -49.578125 Z M 148.734375 -74.359375 L 148.734375 -99.15625 L 173.515625 -99.15625 L 173.515625 -74.359375 Z M 0 -99.15625 L 0 -123.9375 L 148.734375 -123.9375 L 148.734375 -99.15625 Z M 148.734375 0 L 148.734375 -49.578125 L 173.515625 -49.578125 L 173.515625 0 Z M 148.734375 0 "/></g></g></g><g fill="#0b0b0b" fill-opacity="1"><g transform="translate(88.345524, 217.290259)"><g><path d="M 0 0 L 0 -49.578125 L 24.78125 -49.578125 L 24.78125 0 Z M 24.78125 -49.578125 L 24.78125 -74.359375 L 148.734375 -74.359375 L 148.734375 -49.578125 Z M 148.734375 -74.359375 L 148.734375 -99.15625 L 173.515625 -99.15625 L 173.515625 -74.359375 Z M 0 -99.15625 L 0 -123.9375 L 148.734375 -123.9375 L 148.734375 -99.15625 Z M 148.734375 0 L 148.734375 -49.578125 L 173.515625 -49.578125 L 173.515625 0 Z M 148.734375 0 "/></g></g></g></svg>